<svg width="25" height="26" viewBox="0 0 25 26" fill="none" xmlns="http://www.w3.org/2000/svg">
<path d="M21.5197 15.9384L16.9788 13.9037L16.9663 13.8979C16.7305 13.797 16.4734 13.7566 16.218 13.7801C15.9627 13.8037 15.7173 13.8905 15.504 14.0328C15.4789 14.0494 15.4548 14.0674 15.4317 14.0868L13.0856 16.0869C11.5992 15.3649 10.0647 13.842 9.34275 12.3749L11.3457 9.99311C11.365 9.96901 11.3833 9.94491 11.4007 9.91889C11.5399 9.70615 11.6244 9.46231 11.6466 9.20904C11.6688 8.95578 11.628 8.70096 11.5279 8.46725V8.45568L9.48734 3.90703C9.35503 3.60173 9.12754 3.34741 8.83881 3.18202C8.55009 3.01664 8.21562 2.94907 7.88534 2.9894C6.57922 3.16127 5.38033 3.80271 4.51258 4.79391C3.64483 5.78512 3.16757 7.05831 3.16993 8.37568C3.16993 16.0291 9.39673 22.2559 17.0501 22.2559C18.3675 22.2582 19.6407 21.781 20.6319 20.9132C21.6231 20.0455 22.2645 18.8466 22.4364 17.5405C22.4768 17.2103 22.4094 16.8759 22.2442 16.5872C22.079 16.2985 21.8248 16.0709 21.5197 15.9384ZM17.0501 20.7136C13.779 20.71 10.6429 19.409 8.32982 17.096C6.01678 14.7829 4.71574 11.6468 4.71217 8.37568C4.70855 7.43442 5.04766 6.52402 5.66618 5.8145C6.2847 5.10499 7.14034 4.64487 8.0733 4.52007C8.07292 4.52392 8.07292 4.52779 8.0733 4.53164L10.0975 9.06198L8.1051 11.4467C8.08488 11.4699 8.06651 11.4948 8.05016 11.5209C7.90511 11.7435 7.82002 11.9998 7.80313 12.2649C7.78624 12.53 7.83813 12.795 7.95377 13.0342C8.82707 14.8203 10.6267 16.6064 12.4321 17.4788C12.673 17.5933 12.9395 17.6434 13.2056 17.6242C13.4717 17.6049 13.7283 17.5169 13.9502 17.3689C13.975 17.3522 13.9988 17.3342 14.0215 17.3149L16.3648 15.3158L20.8951 17.3448H20.9057C20.7824 18.2791 20.323 19.1364 19.6134 19.7565C18.9037 20.3765 17.9925 20.7168 17.0501 20.7136Z" fill="#213C53"/>
</svg>
